<mxfile host="app.diagrams.net" modified="2021-01-10T14:13:44.256Z" agent="5.0 (Windows)" etag="JbacNpe0ImW3NbSokN5E" version="14.1.9" type="github">
  <diagram id="C5RBs43oDa-KdzZeNtuy" name="Page-1">
    <mxGraphModel dx="1287" dy="1931" grid="1" gridSize="10" guides="1" tooltips="1" connect="1" arrows="1" fold="1" page="1" pageScale="1" pageWidth="827" pageHeight="1169" math="0" shadow="0">
      <root>
        <mxCell id="WIyWlLk6GJQsqaUBKTNV-0" />
        <mxCell id="WIyWlLk6GJQsqaUBKTNV-1" parent="WIyWlLk6GJQsqaUBKTNV-0" />
        <mxCell id="4S0xpe9cDN7XtUJFlHcr-51" value="&quot;" style="rhombus;whiteSpace=wrap;html=1;gradientColor=none;" vertex="1" parent="WIyWlLk6GJQsqaUBKTNV-1">
          <mxGeometry x="1290" y="535.1600000000001" width="110" height="100" as="geometry" />
        </mxCell>
        <mxCell id="4S0xpe9cDN7XtUJFlHcr-44" value="" style="rounded=0;whiteSpace=wrap;html=1;gradientColor=none;" vertex="1" parent="WIyWlLk6GJQsqaUBKTNV-1">
          <mxGeometry x="1100" y="485.16" width="120" height="60" as="geometry" />
        </mxCell>
        <mxCell id="4S0xpe9cDN7XtUJFlHcr-42" value="" style="rhombus;whiteSpace=wrap;html=1;gradientColor=none;" vertex="1" parent="WIyWlLk6GJQsqaUBKTNV-1">
          <mxGeometry x="1105" y="340.16" width="110" height="110" as="geometry" />
        </mxCell>
        <mxCell id="4S0xpe9cDN7XtUJFlHcr-37" value="" style="rhombus;whiteSpace=wrap;html=1;gradientColor=none;" vertex="1" parent="WIyWlLk6GJQsqaUBKTNV-1">
          <mxGeometry x="1090" y="17.66" width="140" height="115" as="geometry" />
        </mxCell>
        <mxCell id="4S0xpe9cDN7XtUJFlHcr-6" value="" style="rounded=0;whiteSpace=wrap;html=1;" vertex="1" parent="WIyWlLk6GJQsqaUBKTNV-1">
          <mxGeometry x="612.5" y="1030.13" width="140" height="50.06" as="geometry" />
        </mxCell>
        <mxCell id="ul4c0IiosibibMGCIvRT-50" value="" style="rhombus;whiteSpace=wrap;html=1;shadow=0;sketch=0;fillColor=#FFFFFF;" parent="WIyWlLk6GJQsqaUBKTNV-1" vertex="1">
          <mxGeometry x="745" y="765.16" width="145" height="90" as="geometry" />
        </mxCell>
        <mxCell id="ul4c0IiosibibMGCIvRT-46" value="" style="rounded=0;whiteSpace=wrap;html=1;shadow=0;sketch=0;fillColor=#FFFFFF;" parent="WIyWlLk6GJQsqaUBKTNV-1" vertex="1">
          <mxGeometry x="745" y="630.16" width="130" height="40" as="geometry" />
        </mxCell>
        <mxCell id="ul4c0IiosibibMGCIvRT-0" value="AIRPORT" style="rounded=0;whiteSpace=wrap;html=1;" parent="WIyWlLk6GJQsqaUBKTNV-1" vertex="1">
          <mxGeometry x="100" y="-40" width="110" height="30" as="geometry" />
        </mxCell>
        <mxCell id="ul4c0IiosibibMGCIvRT-3" value="" style="endArrow=none;html=1;" parent="WIyWlLk6GJQsqaUBKTNV-1" source="ul4c0IiosibibMGCIvRT-0" target="ul4c0IiosibibMGCIvRT-7" edge="1">
          <mxGeometry width="50" height="50" relative="1" as="geometry">
            <mxPoint x="155" y="-50" as="sourcePoint" />
            <mxPoint x="205" y="-140" as="targetPoint" />
          </mxGeometry>
        </mxCell>
        <mxCell id="ul4c0IiosibibMGCIvRT-4" value="" style="endArrow=none;html=1;" parent="WIyWlLk6GJQsqaUBKTNV-1" source="ul4c0IiosibibMGCIvRT-0" target="ul4c0IiosibibMGCIvRT-9" edge="1">
          <mxGeometry width="50" height="50" relative="1" as="geometry">
            <mxPoint x="65" y="-60" as="sourcePoint" />
            <mxPoint x="86" y="-130" as="targetPoint" />
          </mxGeometry>
        </mxCell>
        <mxCell id="ul4c0IiosibibMGCIvRT-5" value="" style="endArrow=none;html=1;" parent="WIyWlLk6GJQsqaUBKTNV-1" source="ul4c0IiosibibMGCIvRT-0" target="ul4c0IiosibibMGCIvRT-10" edge="1">
          <mxGeometry width="50" height="50" relative="1" as="geometry">
            <mxPoint x="165" y="-50" as="sourcePoint" />
            <mxPoint x="215" y="-100" as="targetPoint" />
          </mxGeometry>
        </mxCell>
        <mxCell id="ul4c0IiosibibMGCIvRT-6" value="" style="endArrow=none;html=1;" parent="WIyWlLk6GJQsqaUBKTNV-1" source="ul4c0IiosibibMGCIvRT-0" target="ul4c0IiosibibMGCIvRT-8" edge="1">
          <mxGeometry width="50" height="50" relative="1" as="geometry">
            <mxPoint x="45" y="-60" as="sourcePoint" />
            <mxPoint x="75" y="-80" as="targetPoint" />
          </mxGeometry>
        </mxCell>
        <mxCell id="ul4c0IiosibibMGCIvRT-7" value="State" style="ellipse;whiteSpace=wrap;html=1;" parent="WIyWlLk6GJQsqaUBKTNV-1" vertex="1">
          <mxGeometry x="115" y="-130" width="80" height="40" as="geometry" />
        </mxCell>
        <mxCell id="ul4c0IiosibibMGCIvRT-8" value="&lt;u&gt;Airport_code&lt;/u&gt;" style="ellipse;whiteSpace=wrap;html=1;" parent="WIyWlLk6GJQsqaUBKTNV-1" vertex="1">
          <mxGeometry x="15" y="-90" width="80" height="40" as="geometry" />
        </mxCell>
        <mxCell id="ul4c0IiosibibMGCIvRT-9" value="City" style="ellipse;whiteSpace=wrap;html=1;" parent="WIyWlLk6GJQsqaUBKTNV-1" vertex="1">
          <mxGeometry x="45" y="-140" width="70" height="40" as="geometry" />
        </mxCell>
        <mxCell id="ul4c0IiosibibMGCIvRT-10" value="Name" style="ellipse;whiteSpace=wrap;html=1;" parent="WIyWlLk6GJQsqaUBKTNV-1" vertex="1">
          <mxGeometry x="185" y="-160" width="70" height="40" as="geometry" />
        </mxCell>
        <mxCell id="ul4c0IiosibibMGCIvRT-11" value="" style="endArrow=none;html=1;entryX=0.5;entryY=1;entryDx=0;entryDy=0;exitX=0.5;exitY=0;exitDx=0;exitDy=0;" parent="WIyWlLk6GJQsqaUBKTNV-1" source="ul4c0IiosibibMGCIvRT-12" target="ul4c0IiosibibMGCIvRT-0" edge="1">
          <mxGeometry width="50" height="50" relative="1" as="geometry">
            <mxPoint x="155" y="60" as="sourcePoint" />
            <mxPoint x="145" y="-30" as="targetPoint" />
          </mxGeometry>
        </mxCell>
        <mxCell id="ul4c0IiosibibMGCIvRT-15" value="M" style="edgeLabel;html=1;align=center;verticalAlign=middle;resizable=0;points=[];" parent="ul4c0IiosibibMGCIvRT-11" vertex="1" connectable="0">
          <mxGeometry x="-0.7381" y="1" relative="1" as="geometry">
            <mxPoint x="11" y="8" as="offset" />
          </mxGeometry>
        </mxCell>
        <mxCell id="ul4c0IiosibibMGCIvRT-12" value="CAN_LAND" style="rhombus;whiteSpace=wrap;html=1;" parent="WIyWlLk6GJQsqaUBKTNV-1" vertex="1">
          <mxGeometry x="115" y="50" width="80" height="80" as="geometry" />
        </mxCell>
        <mxCell id="ul4c0IiosibibMGCIvRT-16" value="" style="endArrow=none;html=1;entryX=0.5;entryY=1;entryDx=0;entryDy=0;exitX=0.455;exitY=-0.002;exitDx=0;exitDy=0;exitPerimeter=0;" parent="WIyWlLk6GJQsqaUBKTNV-1" source="ul4c0IiosibibMGCIvRT-18" target="ul4c0IiosibibMGCIvRT-12" edge="1">
          <mxGeometry width="50" height="50" relative="1" as="geometry">
            <mxPoint x="150" y="360" as="sourcePoint" />
            <mxPoint x="140" y="310" as="targetPoint" />
          </mxGeometry>
        </mxCell>
        <mxCell id="ul4c0IiosibibMGCIvRT-17" value="N" style="edgeLabel;html=1;align=center;verticalAlign=middle;resizable=0;points=[];" parent="ul4c0IiosibibMGCIvRT-16" vertex="1" connectable="0">
          <mxGeometry x="0.6743" relative="1" as="geometry">
            <mxPoint x="-9.94" y="-9.6" as="offset" />
          </mxGeometry>
        </mxCell>
        <mxCell id="ul4c0IiosibibMGCIvRT-18" value="AIRPLANE_TYPE" style="rounded=0;whiteSpace=wrap;html=1;" parent="WIyWlLk6GJQsqaUBKTNV-1" vertex="1">
          <mxGeometry x="95" y="410" width="120" height="40" as="geometry" />
        </mxCell>
        <mxCell id="ul4c0IiosibibMGCIvRT-19" value="" style="endArrow=none;html=1;" parent="WIyWlLk6GJQsqaUBKTNV-1" source="ul4c0IiosibibMGCIvRT-20" target="ul4c0IiosibibMGCIvRT-18" edge="1">
          <mxGeometry width="50" height="50" relative="1" as="geometry">
            <mxPoint x="80" y="340" as="sourcePoint" />
            <mxPoint x="140" y="400" as="targetPoint" />
          </mxGeometry>
        </mxCell>
        <mxCell id="ul4c0IiosibibMGCIvRT-20" value="&lt;u&gt;Type_name&lt;/u&gt;" style="ellipse;whiteSpace=wrap;html=1;" parent="WIyWlLk6GJQsqaUBKTNV-1" vertex="1">
          <mxGeometry x="60" y="330" width="70" height="30" as="geometry" />
        </mxCell>
        <mxCell id="ul4c0IiosibibMGCIvRT-21" value="" style="endArrow=none;html=1;" parent="WIyWlLk6GJQsqaUBKTNV-1" source="ul4c0IiosibibMGCIvRT-22" target="ul4c0IiosibibMGCIvRT-18" edge="1">
          <mxGeometry width="50" height="50" relative="1" as="geometry">
            <mxPoint x="60" y="400" as="sourcePoint" />
            <mxPoint x="140" y="400" as="targetPoint" />
          </mxGeometry>
        </mxCell>
        <mxCell id="ul4c0IiosibibMGCIvRT-22" value="Company" style="ellipse;whiteSpace=wrap;html=1;" parent="WIyWlLk6GJQsqaUBKTNV-1" vertex="1">
          <mxGeometry x="15" y="360" width="75" height="30" as="geometry" />
        </mxCell>
        <mxCell id="ul4c0IiosibibMGCIvRT-23" value="" style="endArrow=none;html=1;" parent="WIyWlLk6GJQsqaUBKTNV-1" source="ul4c0IiosibibMGCIvRT-24" target="ul4c0IiosibibMGCIvRT-18" edge="1">
          <mxGeometry width="50" height="50" relative="1" as="geometry">
            <mxPoint x="210" y="330" as="sourcePoint" />
            <mxPoint x="140" y="400" as="targetPoint" />
          </mxGeometry>
        </mxCell>
        <mxCell id="ul4c0IiosibibMGCIvRT-24" value="Max_seats" style="ellipse;whiteSpace=wrap;html=1;" parent="WIyWlLk6GJQsqaUBKTNV-1" vertex="1">
          <mxGeometry x="170" y="340" width="80" height="30" as="geometry" />
        </mxCell>
        <mxCell id="ul4c0IiosibibMGCIvRT-25" value="" style="endArrow=none;html=1;exitX=0.5;exitY=0;exitDx=0;exitDy=0;" parent="WIyWlLk6GJQsqaUBKTNV-1" source="ul4c0IiosibibMGCIvRT-26" target="ul4c0IiosibibMGCIvRT-18" edge="1">
          <mxGeometry width="50" height="50" relative="1" as="geometry">
            <mxPoint x="150" y="490" as="sourcePoint" />
            <mxPoint x="140" y="520" as="targetPoint" />
          </mxGeometry>
        </mxCell>
        <mxCell id="ul4c0IiosibibMGCIvRT-27" value="1" style="edgeLabel;html=1;align=center;verticalAlign=middle;resizable=0;points=[];" parent="ul4c0IiosibibMGCIvRT-25" vertex="1" connectable="0">
          <mxGeometry x="-0.6381" y="1" relative="1" as="geometry">
            <mxPoint x="5.96" y="0.28999999999999915" as="offset" />
          </mxGeometry>
        </mxCell>
        <mxCell id="ul4c0IiosibibMGCIvRT-26" value="TYPE" style="rhombus;whiteSpace=wrap;html=1;" parent="WIyWlLk6GJQsqaUBKTNV-1" vertex="1">
          <mxGeometry x="115" y="490" width="80" height="80" as="geometry" />
        </mxCell>
        <mxCell id="ul4c0IiosibibMGCIvRT-28" value="" style="shape=link;html=1;" parent="WIyWlLk6GJQsqaUBKTNV-1" source="ul4c0IiosibibMGCIvRT-30" target="ul4c0IiosibibMGCIvRT-26" edge="1">
          <mxGeometry width="100" relative="1" as="geometry">
            <mxPoint x="150" y="630" as="sourcePoint" />
            <mxPoint x="130" y="580" as="targetPoint" />
          </mxGeometry>
        </mxCell>
        <mxCell id="ul4c0IiosibibMGCIvRT-29" value="N" style="edgeLabel;html=1;align=center;verticalAlign=middle;resizable=0;points=[];" parent="ul4c0IiosibibMGCIvRT-28" vertex="1" connectable="0">
          <mxGeometry x="0.7429" relative="1" as="geometry">
            <mxPoint x="10" y="-7.43" as="offset" />
          </mxGeometry>
        </mxCell>
        <mxCell id="ul4c0IiosibibMGCIvRT-30" value="AIRPLANE" style="rounded=0;whiteSpace=wrap;html=1;" parent="WIyWlLk6GJQsqaUBKTNV-1" vertex="1">
          <mxGeometry x="95" y="630" width="120" height="30" as="geometry" />
        </mxCell>
        <mxCell id="ul4c0IiosibibMGCIvRT-34" value="" style="endArrow=none;html=1;" parent="WIyWlLk6GJQsqaUBKTNV-1" source="ul4c0IiosibibMGCIvRT-30" target="ul4c0IiosibibMGCIvRT-35" edge="1">
          <mxGeometry width="50" height="50" relative="1" as="geometry">
            <mxPoint x="30" y="620" as="sourcePoint" />
            <mxPoint x="70" y="600" as="targetPoint" />
          </mxGeometry>
        </mxCell>
        <mxCell id="ul4c0IiosibibMGCIvRT-35" value="&lt;u&gt;Ariplane_id&lt;/u&gt;" style="ellipse;whiteSpace=wrap;html=1;" parent="WIyWlLk6GJQsqaUBKTNV-1" vertex="1">
          <mxGeometry x="35" y="575" width="80" height="30" as="geometry" />
        </mxCell>
        <mxCell id="ul4c0IiosibibMGCIvRT-37" value="" style="endArrow=none;html=1;" parent="WIyWlLk6GJQsqaUBKTNV-1" source="ul4c0IiosibibMGCIvRT-30" target="ul4c0IiosibibMGCIvRT-38" edge="1">
          <mxGeometry width="50" height="50" relative="1" as="geometry">
            <mxPoint x="185" y="620" as="sourcePoint" />
            <mxPoint x="210" y="590" as="targetPoint" />
          </mxGeometry>
        </mxCell>
        <mxCell id="ul4c0IiosibibMGCIvRT-38" value="Total_no_of_seats" style="ellipse;whiteSpace=wrap;html=1;" parent="WIyWlLk6GJQsqaUBKTNV-1" vertex="1">
          <mxGeometry x="170" y="570" width="100" height="40" as="geometry" />
        </mxCell>
        <mxCell id="ul4c0IiosibibMGCIvRT-39" value="" style="endArrow=none;html=1;" parent="WIyWlLk6GJQsqaUBKTNV-1" source="ul4c0IiosibibMGCIvRT-30" target="ul4c0IiosibibMGCIvRT-40" edge="1">
          <mxGeometry width="50" height="50" relative="1" as="geometry">
            <mxPoint x="280" y="680" as="sourcePoint" />
            <mxPoint x="300" y="645" as="targetPoint" />
          </mxGeometry>
        </mxCell>
        <mxCell id="ul4c0IiosibibMGCIvRT-40" value="ASSIGNED" style="rhombus;whiteSpace=wrap;html=1;" parent="WIyWlLk6GJQsqaUBKTNV-1" vertex="1">
          <mxGeometry x="575" y="610.16" width="80" height="80" as="geometry" />
        </mxCell>
        <mxCell id="ul4c0IiosibibMGCIvRT-41" value="1" style="text;html=1;align=center;verticalAlign=middle;resizable=0;points=[];autosize=1;" parent="WIyWlLk6GJQsqaUBKTNV-1" vertex="1">
          <mxGeometry x="300" y="630" width="20" height="20" as="geometry" />
        </mxCell>
        <mxCell id="ul4c0IiosibibMGCIvRT-42" value="" style="shape=link;html=1;" parent="WIyWlLk6GJQsqaUBKTNV-1" source="ul4c0IiosibibMGCIvRT-40" target="ul4c0IiosibibMGCIvRT-46" edge="1">
          <mxGeometry width="100" relative="1" as="geometry">
            <mxPoint x="675" y="644.87" as="sourcePoint" />
            <mxPoint x="725" y="650.16" as="targetPoint" />
          </mxGeometry>
        </mxCell>
        <mxCell id="ul4c0IiosibibMGCIvRT-43" value="LEG_INSTANCE" style="rounded=0;whiteSpace=wrap;html=1;" parent="WIyWlLk6GJQsqaUBKTNV-1" vertex="1">
          <mxGeometry x="750" y="635.16" width="120" height="30" as="geometry" />
        </mxCell>
        <mxCell id="ul4c0IiosibibMGCIvRT-47" value="&lt;div&gt;N&lt;/div&gt;" style="text;html=1;align=center;verticalAlign=middle;resizable=0;points=[];autosize=1;" parent="WIyWlLk6GJQsqaUBKTNV-1" vertex="1">
          <mxGeometry x="645" y="630.16" width="20" height="20" as="geometry" />
        </mxCell>
        <mxCell id="ul4c0IiosibibMGCIvRT-48" value="" style="endArrow=none;html=1;entryX=0.5;entryY=1;entryDx=0;entryDy=0;" parent="WIyWlLk6GJQsqaUBKTNV-1" source="ul4c0IiosibibMGCIvRT-50" target="ul4c0IiosibibMGCIvRT-46" edge="1">
          <mxGeometry width="50" height="50" relative="1" as="geometry">
            <mxPoint x="775" y="725.16" as="sourcePoint" />
            <mxPoint x="785" y="695.16" as="targetPoint" />
          </mxGeometry>
        </mxCell>
        <mxCell id="ul4c0IiosibibMGCIvRT-49" value="RESERVATION" style="rhombus;whiteSpace=wrap;html=1;shadow=0;sketch=0;fillColor=#FFFFFF;" parent="WIyWlLk6GJQsqaUBKTNV-1" vertex="1">
          <mxGeometry x="752.5" y="770.16" width="130" height="80" as="geometry" />
        </mxCell>
        <mxCell id="ul4c0IiosibibMGCIvRT-51" value="" style="endArrow=none;html=1;" parent="WIyWlLk6GJQsqaUBKTNV-1" source="ul4c0IiosibibMGCIvRT-50" target="ul4c0IiosibibMGCIvRT-52" edge="1">
          <mxGeometry width="50" height="50" relative="1" as="geometry">
            <mxPoint x="890" y="805.16" as="sourcePoint" />
            <mxPoint x="927.5" y="775.16" as="targetPoint" />
          </mxGeometry>
        </mxCell>
        <mxCell id="ul4c0IiosibibMGCIvRT-52" value="Cphone" style="ellipse;whiteSpace=wrap;html=1;" parent="WIyWlLk6GJQsqaUBKTNV-1" vertex="1">
          <mxGeometry x="877.5" y="865.16" width="90" height="40" as="geometry" />
        </mxCell>
        <mxCell id="ul4c0IiosibibMGCIvRT-53" value="" style="endArrow=none;html=1;" parent="WIyWlLk6GJQsqaUBKTNV-1" source="ul4c0IiosibibMGCIvRT-50" target="ul4c0IiosibibMGCIvRT-54" edge="1">
          <mxGeometry width="50" height="50" relative="1" as="geometry">
            <mxPoint x="777.5" y="715.16" as="sourcePoint" />
            <mxPoint x="762.6446789152028" y="772.4469667542018" as="targetPoint" />
          </mxGeometry>
        </mxCell>
        <mxCell id="ul4c0IiosibibMGCIvRT-54" value="Customer_name" style="ellipse;whiteSpace=wrap;html=1;" parent="WIyWlLk6GJQsqaUBKTNV-1" vertex="1">
          <mxGeometry x="669" y="735.16" width="100" height="40" as="geometry" />
        </mxCell>
        <mxCell id="ul4c0IiosibibMGCIvRT-55" value="" style="shape=link;html=1;" parent="WIyWlLk6GJQsqaUBKTNV-1" source="ul4c0IiosibibMGCIvRT-56" target="ul4c0IiosibibMGCIvRT-49" edge="1">
          <mxGeometry width="100" relative="1" as="geometry">
            <mxPoint x="240" y="890" as="sourcePoint" />
            <mxPoint x="320" y="875" as="targetPoint" />
          </mxGeometry>
        </mxCell>
        <mxCell id="ul4c0IiosibibMGCIvRT-56" value="" style="rounded=0;whiteSpace=wrap;html=1;shadow=0;sketch=0;fillColor=#FFFFFF;" parent="WIyWlLk6GJQsqaUBKTNV-1" vertex="1">
          <mxGeometry x="167.5" y="910" width="130" height="40" as="geometry" />
        </mxCell>
        <mxCell id="ul4c0IiosibibMGCIvRT-57" value="SEAT" style="rounded=0;whiteSpace=wrap;html=1;" parent="WIyWlLk6GJQsqaUBKTNV-1" vertex="1">
          <mxGeometry x="172.5" y="915" width="120" height="30" as="geometry" />
        </mxCell>
        <mxCell id="ul4c0IiosibibMGCIvRT-58" value="&lt;div&gt;N&lt;/div&gt;" style="text;html=1;align=center;verticalAlign=middle;resizable=0;points=[];autosize=1;" parent="WIyWlLk6GJQsqaUBKTNV-1" vertex="1">
          <mxGeometry x="772.5" y="835.16" width="20" height="20" as="geometry" />
        </mxCell>
        <mxCell id="ul4c0IiosibibMGCIvRT-59" value="&lt;div&gt;1&lt;/div&gt;" style="text;html=1;align=center;verticalAlign=middle;resizable=0;points=[];autosize=1;" parent="WIyWlLk6GJQsqaUBKTNV-1" vertex="1">
          <mxGeometry x="847.5" y="765.16" width="20" height="20" as="geometry" />
        </mxCell>
        <mxCell id="ul4c0IiosibibMGCIvRT-60" value="" style="endArrow=none;html=1;exitX=0.192;exitY=0.039;exitDx=0;exitDy=0;exitPerimeter=0;" parent="WIyWlLk6GJQsqaUBKTNV-1" source="ul4c0IiosibibMGCIvRT-56" target="ul4c0IiosibibMGCIvRT-61" edge="1">
          <mxGeometry width="50" height="50" relative="1" as="geometry">
            <mxPoint x="102.5" y="870" as="sourcePoint" />
            <mxPoint x="160" y="860" as="targetPoint" />
          </mxGeometry>
        </mxCell>
        <mxCell id="ul4c0IiosibibMGCIvRT-61" value="Seat_no" style="ellipse;whiteSpace=wrap;html=1;" parent="WIyWlLk6GJQsqaUBKTNV-1" vertex="1">
          <mxGeometry x="110" y="830" width="90" height="50" as="geometry" />
        </mxCell>
        <mxCell id="ul4c0IiosibibMGCIvRT-62" value="" style="endArrow=none;dashed=1;html=1;dashPattern=1 3;strokeWidth=2;" parent="WIyWlLk6GJQsqaUBKTNV-1" edge="1">
          <mxGeometry width="50" height="50" relative="1" as="geometry">
            <mxPoint x="182.5" y="860" as="sourcePoint" />
            <mxPoint x="132.5" y="860" as="targetPoint" />
          </mxGeometry>
        </mxCell>
        <mxCell id="ul4c0IiosibibMGCIvRT-63" value="" style="endArrow=none;html=1;" parent="WIyWlLk6GJQsqaUBKTNV-1" source="ul4c0IiosibibMGCIvRT-64" target="ul4c0IiosibibMGCIvRT-0" edge="1">
          <mxGeometry width="50" height="50" relative="1" as="geometry">
            <mxPoint x="410" y="350" as="sourcePoint" />
            <mxPoint x="400" y="410" as="targetPoint" />
          </mxGeometry>
        </mxCell>
        <mxCell id="ul4c0IiosibibMGCIvRT-64" value="ARRIVES" style="rhombus;whiteSpace=wrap;html=1;shadow=0;sketch=0;fillColor=#FFFFFF;" parent="WIyWlLk6GJQsqaUBKTNV-1" vertex="1">
          <mxGeometry x="-705" y="1095.11" width="80" height="80" as="geometry" />
        </mxCell>
        <mxCell id="ul4c0IiosibibMGCIvRT-65" value="" style="endArrow=none;html=1;" parent="WIyWlLk6GJQsqaUBKTNV-1" source="ul4c0IiosibibMGCIvRT-43" target="ul4c0IiosibibMGCIvRT-64" edge="1">
          <mxGeometry width="50" height="50" relative="1" as="geometry">
            <mxPoint x="350" y="460" as="sourcePoint" />
            <mxPoint x="400" y="410" as="targetPoint" />
          </mxGeometry>
        </mxCell>
        <mxCell id="ul4c0IiosibibMGCIvRT-66" value="" style="endArrow=none;html=1;" parent="WIyWlLk6GJQsqaUBKTNV-1" source="ul4c0IiosibibMGCIvRT-67" target="ul4c0IiosibibMGCIvRT-0" edge="1">
          <mxGeometry width="50" height="50" relative="1" as="geometry">
            <mxPoint x="340" y="420" as="sourcePoint" />
            <mxPoint x="400" y="410" as="targetPoint" />
          </mxGeometry>
        </mxCell>
        <mxCell id="ul4c0IiosibibMGCIvRT-67" value="DEPARTS" style="rhombus;whiteSpace=wrap;html=1;shadow=0;sketch=0;fillColor=#FFFFFF;" parent="WIyWlLk6GJQsqaUBKTNV-1" vertex="1">
          <mxGeometry x="-470" y="930" width="80" height="60" as="geometry" />
        </mxCell>
        <mxCell id="ul4c0IiosibibMGCIvRT-68" value="" style="endArrow=none;html=1;" parent="WIyWlLk6GJQsqaUBKTNV-1" source="ul4c0IiosibibMGCIvRT-43" target="ul4c0IiosibibMGCIvRT-67" edge="1">
          <mxGeometry width="50" height="50" relative="1" as="geometry">
            <mxPoint x="350" y="460" as="sourcePoint" />
            <mxPoint x="400" y="410" as="targetPoint" />
          </mxGeometry>
        </mxCell>
        <mxCell id="ul4c0IiosibibMGCIvRT-69" value="" style="endArrow=none;html=1;" parent="WIyWlLk6GJQsqaUBKTNV-1" source="ul4c0IiosibibMGCIvRT-70" target="ul4c0IiosibibMGCIvRT-67" edge="1">
          <mxGeometry width="50" height="50" relative="1" as="geometry">
            <mxPoint x="-440" y="1010" as="sourcePoint" />
            <mxPoint x="-370" y="950" as="targetPoint" />
          </mxGeometry>
        </mxCell>
        <mxCell id="ul4c0IiosibibMGCIvRT-70" value="Dep_time" style="ellipse;whiteSpace=wrap;html=1;shadow=0;sketch=0;fillColor=#FFFFFF;" parent="WIyWlLk6GJQsqaUBKTNV-1" vertex="1">
          <mxGeometry x="-340" y="860" width="90" height="40" as="geometry" />
        </mxCell>
        <mxCell id="ul4c0IiosibibMGCIvRT-71" value="1" style="text;html=1;align=center;verticalAlign=middle;resizable=0;points=[];autosize=1;" parent="WIyWlLk6GJQsqaUBKTNV-1" vertex="1">
          <mxGeometry x="-455" y="920" width="20" height="20" as="geometry" />
        </mxCell>
        <mxCell id="ul4c0IiosibibMGCIvRT-72" value="N" style="text;html=1;align=center;verticalAlign=middle;resizable=0;points=[];autosize=1;" parent="WIyWlLk6GJQsqaUBKTNV-1" vertex="1">
          <mxGeometry x="-410" y="970" width="20" height="20" as="geometry" />
        </mxCell>
        <mxCell id="ul4c0IiosibibMGCIvRT-73" value="" style="endArrow=none;html=1;" parent="WIyWlLk6GJQsqaUBKTNV-1" source="ul4c0IiosibibMGCIvRT-64" target="ul4c0IiosibibMGCIvRT-74" edge="1">
          <mxGeometry width="50" height="50" relative="1" as="geometry">
            <mxPoint x="-690" y="1080.11" as="sourcePoint" />
            <mxPoint x="-645.319580040335" y="1080.0048241129373" as="targetPoint" />
          </mxGeometry>
        </mxCell>
        <mxCell id="ul4c0IiosibibMGCIvRT-74" value="Arr_time" style="ellipse;whiteSpace=wrap;html=1;" parent="WIyWlLk6GJQsqaUBKTNV-1" vertex="1">
          <mxGeometry x="-685" y="1030" width="90" height="30" as="geometry" />
        </mxCell>
        <mxCell id="ul4c0IiosibibMGCIvRT-75" value="1" style="text;html=1;align=center;verticalAlign=middle;resizable=0;points=[];autosize=1;" parent="WIyWlLk6GJQsqaUBKTNV-1" vertex="1">
          <mxGeometry x="-720" y="1100.11" width="20" height="20" as="geometry" />
        </mxCell>
        <mxCell id="ul4c0IiosibibMGCIvRT-76" value="N" style="text;html=1;align=center;verticalAlign=middle;resizable=0;points=[];autosize=1;" parent="WIyWlLk6GJQsqaUBKTNV-1" vertex="1">
          <mxGeometry x="-650" y="1150.11" width="20" height="20" as="geometry" />
        </mxCell>
        <mxCell id="ul4c0IiosibibMGCIvRT-78" value="" style="endArrow=none;html=1;entryX=0;entryY=0.5;entryDx=0;entryDy=0;" parent="WIyWlLk6GJQsqaUBKTNV-1" source="ul4c0IiosibibMGCIvRT-0" target="ul4c0IiosibibMGCIvRT-79" edge="1">
          <mxGeometry width="50" height="50" relative="1" as="geometry">
            <mxPoint x="305" y="20" as="sourcePoint" />
            <mxPoint x="395" y="20" as="targetPoint" />
          </mxGeometry>
        </mxCell>
        <mxCell id="ul4c0IiosibibMGCIvRT-79" value="ARRIVAL_AIRPORT" style="rhombus;whiteSpace=wrap;html=1;" parent="WIyWlLk6GJQsqaUBKTNV-1" vertex="1">
          <mxGeometry x="565" y="50" width="160" height="80" as="geometry" />
        </mxCell>
        <mxCell id="ul4c0IiosibibMGCIvRT-80" value="DEPARTURE_AIRPORT" style="rhombus;whiteSpace=wrap;html=1;" parent="WIyWlLk6GJQsqaUBKTNV-1" vertex="1">
          <mxGeometry x="535" y="-240" width="165" height="80" as="geometry" />
        </mxCell>
        <mxCell id="ul4c0IiosibibMGCIvRT-82" value="" style="endArrow=none;html=1;" parent="WIyWlLk6GJQsqaUBKTNV-1" source="ul4c0IiosibibMGCIvRT-80" target="ul4c0IiosibibMGCIvRT-83" edge="1">
          <mxGeometry width="50" height="50" relative="1" as="geometry">
            <mxPoint x="470" y="-170" as="sourcePoint" />
            <mxPoint x="505" y="-160" as="targetPoint" />
          </mxGeometry>
        </mxCell>
        <mxCell id="ul4c0IiosibibMGCIvRT-83" value="Scheduled_dep_time" style="ellipse;whiteSpace=wrap;html=1;" parent="WIyWlLk6GJQsqaUBKTNV-1" vertex="1">
          <mxGeometry x="665" y="-105" width="146" height="50" as="geometry" />
        </mxCell>
        <mxCell id="ul4c0IiosibibMGCIvRT-87" value="" style="endArrow=none;html=1;" parent="WIyWlLk6GJQsqaUBKTNV-1" source="ul4c0IiosibibMGCIvRT-79" target="ul4c0IiosibibMGCIvRT-88" edge="1">
          <mxGeometry width="50" height="50" relative="1" as="geometry">
            <mxPoint x="430" y="-10" as="sourcePoint" />
            <mxPoint x="455" y="-40" as="targetPoint" />
          </mxGeometry>
        </mxCell>
        <mxCell id="ul4c0IiosibibMGCIvRT-88" value="Scheduled_arr_time" style="ellipse;whiteSpace=wrap;html=1;" parent="WIyWlLk6GJQsqaUBKTNV-1" vertex="1">
          <mxGeometry x="455" y="-40" width="160" height="55" as="geometry" />
        </mxCell>
        <mxCell id="ul4c0IiosibibMGCIvRT-89" value="" style="shape=link;html=1;exitX=1;exitY=0.5;exitDx=0;exitDy=0;" parent="WIyWlLk6GJQsqaUBKTNV-1" source="ul4c0IiosibibMGCIvRT-80" target="ul4c0IiosibibMGCIvRT-95" edge="1">
          <mxGeometry width="100" relative="1" as="geometry">
            <mxPoint x="665" y="-147.41176470588243" as="sourcePoint" />
            <mxPoint x="715" y="-120" as="targetPoint" />
          </mxGeometry>
        </mxCell>
        <mxCell id="ul4c0IiosibibMGCIvRT-94" value="" style="rounded=0;whiteSpace=wrap;html=1;shadow=0;sketch=0;fillColor=#FFFFFF;" parent="WIyWlLk6GJQsqaUBKTNV-1" vertex="1">
          <mxGeometry x="1080" y="-104.84" width="130" height="40" as="geometry" />
        </mxCell>
        <mxCell id="ul4c0IiosibibMGCIvRT-95" value="FLIGHT_LEG" style="rounded=0;whiteSpace=wrap;html=1;" parent="WIyWlLk6GJQsqaUBKTNV-1" vertex="1">
          <mxGeometry x="1085" y="-99.84" width="120" height="30" as="geometry" />
        </mxCell>
        <mxCell id="ul4c0IiosibibMGCIvRT-96" value="" style="shape=link;html=1;entryX=0;entryY=1;entryDx=0;entryDy=0;exitX=1;exitY=0.5;exitDx=0;exitDy=0;" parent="WIyWlLk6GJQsqaUBKTNV-1" source="ul4c0IiosibibMGCIvRT-79" target="ul4c0IiosibibMGCIvRT-94" edge="1">
          <mxGeometry width="100" relative="1" as="geometry">
            <mxPoint x="805" y="100" as="sourcePoint" />
            <mxPoint x="715" y="200" as="targetPoint" />
          </mxGeometry>
        </mxCell>
        <mxCell id="ul4c0IiosibibMGCIvRT-97" value="1" style="text;html=1;align=center;verticalAlign=middle;resizable=0;points=[];autosize=1;" parent="WIyWlLk6GJQsqaUBKTNV-1" vertex="1">
          <mxGeometry x="575" y="60" width="20" height="20" as="geometry" />
        </mxCell>
        <mxCell id="ul4c0IiosibibMGCIvRT-98" value="N" style="text;html=1;align=center;verticalAlign=middle;resizable=0;points=[];autosize=1;" parent="WIyWlLk6GJQsqaUBKTNV-1" vertex="1">
          <mxGeometry x="735" y="60" width="20" height="20" as="geometry" />
        </mxCell>
        <mxCell id="ul4c0IiosibibMGCIvRT-100" value="" style="endArrow=none;html=1;entryX=0;entryY=0.5;entryDx=0;entryDy=0;" parent="WIyWlLk6GJQsqaUBKTNV-1" source="ul4c0IiosibibMGCIvRT-0" target="ul4c0IiosibibMGCIvRT-80" edge="1">
          <mxGeometry width="50" height="50" relative="1" as="geometry">
            <mxPoint x="192.5" y="-40" as="sourcePoint" />
            <mxPoint x="465" y="-146.09375" as="targetPoint" />
          </mxGeometry>
        </mxCell>
        <mxCell id="ul4c0IiosibibMGCIvRT-103" value="1" style="text;html=1;align=center;verticalAlign=middle;resizable=0;points=[];autosize=1;" parent="WIyWlLk6GJQsqaUBKTNV-1" vertex="1">
          <mxGeometry x="525" y="-200" width="20" height="20" as="geometry" />
        </mxCell>
        <mxCell id="ul4c0IiosibibMGCIvRT-104" value="N" style="text;html=1;align=center;verticalAlign=middle;resizable=0;points=[];autosize=1;" parent="WIyWlLk6GJQsqaUBKTNV-1" vertex="1">
          <mxGeometry x="685" y="-190" width="20" height="20" as="geometry" />
        </mxCell>
        <mxCell id="ul4c0IiosibibMGCIvRT-105" value="" style="endArrow=none;html=1;entryX=0.5;entryY=0;entryDx=0;entryDy=0;" parent="WIyWlLk6GJQsqaUBKTNV-1" source="ul4c0IiosibibMGCIvRT-106" target="ul4c0IiosibibMGCIvRT-94" edge="1">
          <mxGeometry width="50" height="50" relative="1" as="geometry">
            <mxPoint x="1110" y="-194.84" as="sourcePoint" />
            <mxPoint x="1140" y="-54.84" as="targetPoint" />
          </mxGeometry>
        </mxCell>
        <mxCell id="ul4c0IiosibibMGCIvRT-106" value="Leg_no" style="ellipse;whiteSpace=wrap;html=1;shadow=0;sketch=0;fillColor=#FFFFFF;" parent="WIyWlLk6GJQsqaUBKTNV-1" vertex="1">
          <mxGeometry x="1100" y="-264.84" width="120" height="80" as="geometry" />
        </mxCell>
        <mxCell id="ul4c0IiosibibMGCIvRT-107" value="" style="endArrow=none;dashed=1;html=1;dashPattern=1 3;strokeWidth=2;" parent="WIyWlLk6GJQsqaUBKTNV-1" edge="1">
          <mxGeometry width="50" height="50" relative="1" as="geometry">
            <mxPoint x="1140" y="-214.84" as="sourcePoint" />
            <mxPoint x="1180" y="-214.84" as="targetPoint" />
          </mxGeometry>
        </mxCell>
        <mxCell id="4S0xpe9cDN7XtUJFlHcr-1" value="CUSTOMER" style="rounded=0;whiteSpace=wrap;html=1;" vertex="1" parent="WIyWlLk6GJQsqaUBKTNV-1">
          <mxGeometry x="620" y="1040.13" width="122.5" height="30.06" as="geometry" />
        </mxCell>
        <mxCell id="4S0xpe9cDN7XtUJFlHcr-2" value="" style="endArrow=none;html=1;entryX=0.5;entryY=1;entryDx=0;entryDy=0;" edge="1" parent="WIyWlLk6GJQsqaUBKTNV-1" source="4S0xpe9cDN7XtUJFlHcr-3" target="ul4c0IiosibibMGCIvRT-56">
          <mxGeometry width="50" height="50" relative="1" as="geometry">
            <mxPoint x="137.5" y="999.9999999999999" as="sourcePoint" />
            <mxPoint x="247.5" y="970" as="targetPoint" />
          </mxGeometry>
        </mxCell>
        <mxCell id="4S0xpe9cDN7XtUJFlHcr-3" value="BUYS" style="rhombus;whiteSpace=wrap;html=1;" vertex="1" parent="WIyWlLk6GJQsqaUBKTNV-1">
          <mxGeometry x="192.5" y="1009.9999999999999" width="80" height="80" as="geometry" />
        </mxCell>
        <mxCell id="4S0xpe9cDN7XtUJFlHcr-4" value="" style="endArrow=none;html=1;exitX=0;exitY=0.5;exitDx=0;exitDy=0;" edge="1" parent="WIyWlLk6GJQsqaUBKTNV-1" source="4S0xpe9cDN7XtUJFlHcr-6" target="4S0xpe9cDN7XtUJFlHcr-3">
          <mxGeometry width="50" height="50" relative="1" as="geometry">
            <mxPoint x="47.5" y="950" as="sourcePoint" />
            <mxPoint x="97.5" y="900" as="targetPoint" />
          </mxGeometry>
        </mxCell>
        <mxCell id="4S0xpe9cDN7XtUJFlHcr-7" value="" style="endArrow=none;html=1;exitX=0.467;exitY=0.987;exitDx=0;exitDy=0;exitPerimeter=0;" edge="1" parent="WIyWlLk6GJQsqaUBKTNV-1" source="4S0xpe9cDN7XtUJFlHcr-6" target="4S0xpe9cDN7XtUJFlHcr-8">
          <mxGeometry width="50" height="50" relative="1" as="geometry">
            <mxPoint x="762.5" y="1065.16" as="sourcePoint" />
            <mxPoint x="672.5" y="1135.16" as="targetPoint" />
          </mxGeometry>
        </mxCell>
        <mxCell id="4S0xpe9cDN7XtUJFlHcr-8" value="RECORD" style="rhombus;whiteSpace=wrap;html=1;" vertex="1" parent="WIyWlLk6GJQsqaUBKTNV-1">
          <mxGeometry x="641.25" y="1125.16" width="80" height="80" as="geometry" />
        </mxCell>
        <mxCell id="4S0xpe9cDN7XtUJFlHcr-9" value="" style="endArrow=none;html=1;entryX=0.5;entryY=1;entryDx=0;entryDy=0;" edge="1" parent="WIyWlLk6GJQsqaUBKTNV-1" source="4S0xpe9cDN7XtUJFlHcr-10" target="4S0xpe9cDN7XtUJFlHcr-8">
          <mxGeometry width="50" height="50" relative="1" as="geometry">
            <mxPoint x="672.5" y="1275.16" as="sourcePoint" />
            <mxPoint x="632.5" y="1215.16" as="targetPoint" />
          </mxGeometry>
        </mxCell>
        <mxCell id="4S0xpe9cDN7XtUJFlHcr-10" value="FFC" style="rounded=0;whiteSpace=wrap;html=1;" vertex="1" parent="WIyWlLk6GJQsqaUBKTNV-1">
          <mxGeometry x="622.5" y="1265.16" width="120" height="40" as="geometry" />
        </mxCell>
        <mxCell id="4S0xpe9cDN7XtUJFlHcr-11" value="" style="endArrow=none;html=1;" edge="1" parent="WIyWlLk6GJQsqaUBKTNV-1" target="4S0xpe9cDN7XtUJFlHcr-10">
          <mxGeometry width="50" height="50" relative="1" as="geometry">
            <mxPoint x="613.1231060123109" y="1246.3732034356065" as="sourcePoint" />
            <mxPoint x="632.5" y="1215.16" as="targetPoint" />
          </mxGeometry>
        </mxCell>
        <mxCell id="4S0xpe9cDN7XtUJFlHcr-12" value="&lt;u&gt;passport_number&lt;/u&gt;" style="ellipse;whiteSpace=wrap;html=1;" vertex="1" parent="WIyWlLk6GJQsqaUBKTNV-1">
          <mxGeometry x="268.5" y="1190" width="105" height="60" as="geometry" />
        </mxCell>
        <mxCell id="4S0xpe9cDN7XtUJFlHcr-13" value="" style="endArrow=none;html=1;" edge="1" parent="WIyWlLk6GJQsqaUBKTNV-1" target="4S0xpe9cDN7XtUJFlHcr-10">
          <mxGeometry width="50" height="50" relative="1" as="geometry">
            <mxPoint x="608.9220705126354" y="1349.8385189978337" as="sourcePoint" />
            <mxPoint x="632.5" y="1215.16" as="targetPoint" />
          </mxGeometry>
        </mxCell>
        <mxCell id="4S0xpe9cDN7XtUJFlHcr-14" value="country" style="ellipse;whiteSpace=wrap;html=1;direction=west;" vertex="1" parent="WIyWlLk6GJQsqaUBKTNV-1">
          <mxGeometry x="272.5" y="1340" width="106" height="60" as="geometry" />
        </mxCell>
        <mxCell id="4S0xpe9cDN7XtUJFlHcr-18" value="milleage" style="ellipse;whiteSpace=wrap;html=1;dashed=1;" vertex="1" parent="WIyWlLk6GJQsqaUBKTNV-1">
          <mxGeometry x="206.5" y="1270" width="115" height="60" as="geometry" />
        </mxCell>
        <mxCell id="4S0xpe9cDN7XtUJFlHcr-19" value="" style="endArrow=none;html=1;" edge="1" parent="WIyWlLk6GJQsqaUBKTNV-1" target="4S0xpe9cDN7XtUJFlHcr-10">
          <mxGeometry width="50" height="50" relative="1" as="geometry">
            <mxPoint x="575.2388346993043" y="1298.9112405889662" as="sourcePoint" />
            <mxPoint x="492.5" y="1315.16" as="targetPoint" />
          </mxGeometry>
        </mxCell>
        <mxCell id="4S0xpe9cDN7XtUJFlHcr-22" value="" style="endArrow=none;html=1;" edge="1" parent="WIyWlLk6GJQsqaUBKTNV-1" source="ul4c0IiosibibMGCIvRT-18" target="4S0xpe9cDN7XtUJFlHcr-23">
          <mxGeometry width="50" height="50" relative="1" as="geometry">
            <mxPoint x="310" y="500" as="sourcePoint" />
            <mxPoint x="320" y="430" as="targetPoint" />
          </mxGeometry>
        </mxCell>
        <mxCell id="4S0xpe9cDN7XtUJFlHcr-23" value="MANIFACTURE" style="rhombus;whiteSpace=wrap;html=1;" vertex="1" parent="WIyWlLk6GJQsqaUBKTNV-1">
          <mxGeometry x="280" y="390" width="110" height="80" as="geometry" />
        </mxCell>
        <mxCell id="4S0xpe9cDN7XtUJFlHcr-24" value="" style="endArrow=none;html=1;" edge="1" parent="WIyWlLk6GJQsqaUBKTNV-1" source="4S0xpe9cDN7XtUJFlHcr-25" target="4S0xpe9cDN7XtUJFlHcr-23">
          <mxGeometry width="50" height="50" relative="1" as="geometry">
            <mxPoint x="480" y="430" as="sourcePoint" />
            <mxPoint x="430" y="450" as="targetPoint" />
          </mxGeometry>
        </mxCell>
        <mxCell id="4S0xpe9cDN7XtUJFlHcr-25" value="&lt;div&gt;AIRPLANE_&lt;/div&gt;&lt;div&gt;MANUFUCTURER&lt;/div&gt;" style="rounded=0;whiteSpace=wrap;html=1;gradientColor=none;" vertex="1" parent="WIyWlLk6GJQsqaUBKTNV-1">
          <mxGeometry x="420.25" y="410" width="156" height="36.25" as="geometry" />
        </mxCell>
        <mxCell id="4S0xpe9cDN7XtUJFlHcr-26" value="" style="endArrow=none;html=1;entryX=1;entryY=0.5;entryDx=0;entryDy=0;" edge="1" parent="WIyWlLk6GJQsqaUBKTNV-1" source="4S0xpe9cDN7XtUJFlHcr-27" target="4S0xpe9cDN7XtUJFlHcr-25">
          <mxGeometry width="50" height="50" relative="1" as="geometry">
            <mxPoint x="620" y="450" as="sourcePoint" />
            <mxPoint x="680" y="450" as="targetPoint" />
          </mxGeometry>
        </mxCell>
        <mxCell id="4S0xpe9cDN7XtUJFlHcr-27" value="O" style="ellipse;whiteSpace=wrap;html=1;aspect=fixed;gradientColor=none;" vertex="1" parent="WIyWlLk6GJQsqaUBKTNV-1">
          <mxGeometry x="620" y="370" width="30" height="30" as="geometry" />
        </mxCell>
        <mxCell id="4S0xpe9cDN7XtUJFlHcr-29" value="" style="endArrow=none;html=1;" edge="1" parent="WIyWlLk6GJQsqaUBKTNV-1" source="4S0xpe9cDN7XtUJFlHcr-28" target="4S0xpe9cDN7XtUJFlHcr-27">
          <mxGeometry width="50" height="50" relative="1" as="geometry">
            <mxPoint x="606.25" y="470" as="sourcePoint" />
            <mxPoint x="656.25" y="420" as="targetPoint" />
          </mxGeometry>
        </mxCell>
        <mxCell id="4S0xpe9cDN7XtUJFlHcr-31" value="" style="endArrow=none;html=1;exitX=0;exitY=0.5;exitDx=0;exitDy=0;" edge="1" parent="WIyWlLk6GJQsqaUBKTNV-1" source="4S0xpe9cDN7XtUJFlHcr-32" target="4S0xpe9cDN7XtUJFlHcr-27">
          <mxGeometry width="50" height="50" relative="1" as="geometry">
            <mxPoint x="710" y="430" as="sourcePoint" />
            <mxPoint x="600" y="450" as="targetPoint" />
          </mxGeometry>
        </mxCell>
        <mxCell id="4S0xpe9cDN7XtUJFlHcr-32" value="AIRLINE" style="rounded=0;whiteSpace=wrap;html=1;gradientColor=none;" vertex="1" parent="WIyWlLk6GJQsqaUBKTNV-1">
          <mxGeometry x="705" y="407.5" width="134" height="42.5" as="geometry" />
        </mxCell>
        <mxCell id="4S0xpe9cDN7XtUJFlHcr-34" value="" style="endArrow=none;html=1;exitX=0.5;exitY=0;exitDx=0;exitDy=0;" edge="1" parent="WIyWlLk6GJQsqaUBKTNV-1" source="4S0xpe9cDN7XtUJFlHcr-37">
          <mxGeometry width="50" height="50" relative="1" as="geometry">
            <mxPoint x="1144.9999999999995" y="45.16" as="sourcePoint" />
            <mxPoint x="1145" y="-64.84" as="targetPoint" />
          </mxGeometry>
        </mxCell>
        <mxCell id="4S0xpe9cDN7XtUJFlHcr-36" value="LEGS" style="rhombus;whiteSpace=wrap;html=1;gradientColor=none;" vertex="1" parent="WIyWlLk6GJQsqaUBKTNV-1">
          <mxGeometry x="1100" y="25.16" width="120" height="100" as="geometry" />
        </mxCell>
        <mxCell id="4S0xpe9cDN7XtUJFlHcr-38" value="FLIGHT" style="rounded=0;whiteSpace=wrap;html=1;gradientColor=none;" vertex="1" parent="WIyWlLk6GJQsqaUBKTNV-1">
          <mxGeometry x="1100" y="205.16" width="120" height="60" as="geometry" />
        </mxCell>
        <mxCell id="4S0xpe9cDN7XtUJFlHcr-39" value="" style="endArrow=none;html=1;entryX=0.5;entryY=1;entryDx=0;entryDy=0;" edge="1" parent="WIyWlLk6GJQsqaUBKTNV-1" source="4S0xpe9cDN7XtUJFlHcr-38" target="4S0xpe9cDN7XtUJFlHcr-37">
          <mxGeometry width="50" height="50" relative="1" as="geometry">
            <mxPoint x="975" y="215.16" as="sourcePoint" />
            <mxPoint x="1025" y="165.16" as="targetPoint" />
          </mxGeometry>
        </mxCell>
        <mxCell id="4S0xpe9cDN7XtUJFlHcr-40" value="" style="endArrow=none;html=1;exitX=0.5;exitY=0;exitDx=0;exitDy=0;" edge="1" parent="WIyWlLk6GJQsqaUBKTNV-1" source="4S0xpe9cDN7XtUJFlHcr-42" target="4S0xpe9cDN7XtUJFlHcr-38">
          <mxGeometry width="50" height="50" relative="1" as="geometry">
            <mxPoint x="1160" y="335.16" as="sourcePoint" />
            <mxPoint x="1025" y="265.16" as="targetPoint" />
          </mxGeometry>
        </mxCell>
        <mxCell id="4S0xpe9cDN7XtUJFlHcr-41" value="FARES" style="rhombus;whiteSpace=wrap;html=1;gradientColor=none;" vertex="1" parent="WIyWlLk6GJQsqaUBKTNV-1">
          <mxGeometry x="1120" y="355.16" width="80" height="80" as="geometry" />
        </mxCell>
        <mxCell id="4S0xpe9cDN7XtUJFlHcr-43" value="" style="endArrow=none;html=1;entryX=0.5;entryY=1;entryDx=0;entryDy=0;" edge="1" parent="WIyWlLk6GJQsqaUBKTNV-1" source="4S0xpe9cDN7XtUJFlHcr-44" target="4S0xpe9cDN7XtUJFlHcr-42">
          <mxGeometry width="50" height="50" relative="1" as="geometry">
            <mxPoint x="1160" y="485.16" as="sourcePoint" />
            <mxPoint x="1025" y="415.16" as="targetPoint" />
          </mxGeometry>
        </mxCell>
        <mxCell id="4S0xpe9cDN7XtUJFlHcr-45" value="FARE" style="rounded=0;whiteSpace=wrap;html=1;gradientColor=none;" vertex="1" parent="WIyWlLk6GJQsqaUBKTNV-1">
          <mxGeometry x="1110" y="495.16" width="100" height="40" as="geometry" />
        </mxCell>
        <mxCell id="4S0xpe9cDN7XtUJFlHcr-46" value="EXECUTES" style="rhombus;whiteSpace=wrap;html=1;gradientColor=none;" vertex="1" parent="WIyWlLk6GJQsqaUBKTNV-1">
          <mxGeometry x="882.5" y="383.13000000000005" width="140" height="90" as="geometry" />
        </mxCell>
        <mxCell id="4S0xpe9cDN7XtUJFlHcr-47" value="" style="endArrow=none;html=1;exitX=1;exitY=0.5;exitDx=0;exitDy=0;" edge="1" parent="WIyWlLk6GJQsqaUBKTNV-1" source="4S0xpe9cDN7XtUJFlHcr-32" target="4S0xpe9cDN7XtUJFlHcr-46">
          <mxGeometry width="50" height="50" relative="1" as="geometry">
            <mxPoint x="1120" y="370" as="sourcePoint" />
            <mxPoint x="1170" y="320" as="targetPoint" />
          </mxGeometry>
        </mxCell>
        <mxCell id="4S0xpe9cDN7XtUJFlHcr-48" value="" style="endArrow=none;html=1;" edge="1" parent="WIyWlLk6GJQsqaUBKTNV-1" source="4S0xpe9cDN7XtUJFlHcr-46" target="4S0xpe9cDN7XtUJFlHcr-38">
          <mxGeometry width="50" height="50" relative="1" as="geometry">
            <mxPoint x="980" y="365.16" as="sourcePoint" />
            <mxPoint x="1030" y="315.16" as="targetPoint" />
          </mxGeometry>
        </mxCell>
        <mxCell id="4S0xpe9cDN7XtUJFlHcr-49" value="" style="endArrow=none;html=1;entryX=1;entryY=1;entryDx=0;entryDy=0;exitX=0.5;exitY=0;exitDx=0;exitDy=0;" edge="1" parent="WIyWlLk6GJQsqaUBKTNV-1" source="4S0xpe9cDN7XtUJFlHcr-51" target="ul4c0IiosibibMGCIvRT-94">
          <mxGeometry width="50" height="50" relative="1" as="geometry">
            <mxPoint x="940" y="115.16" as="sourcePoint" />
            <mxPoint x="610" y="365.16" as="targetPoint" />
          </mxGeometry>
        </mxCell>
        <mxCell id="4S0xpe9cDN7XtUJFlHcr-50" value="INSTANCE_OF" style="rhombus;whiteSpace=wrap;html=1;gradientColor=none;" vertex="1" parent="WIyWlLk6GJQsqaUBKTNV-1">
          <mxGeometry x="1300" y="545.16" width="90" height="80" as="geometry" />
        </mxCell>
        <mxCell id="4S0xpe9cDN7XtUJFlHcr-52" value="" style="endArrow=none;html=1;entryX=0.5;entryY=1;entryDx=0;entryDy=0;exitX=1;exitY=0.5;exitDx=0;exitDy=0;" edge="1" parent="WIyWlLk6GJQsqaUBKTNV-1" source="ul4c0IiosibibMGCIvRT-46" target="4S0xpe9cDN7XtUJFlHcr-51">
          <mxGeometry width="50" height="50" relative="1" as="geometry">
            <mxPoint x="850" y="350" as="sourcePoint" />
            <mxPoint x="900" y="300" as="targetPoint" />
          </mxGeometry>
        </mxCell>
        <mxCell id="4S0xpe9cDN7XtUJFlHcr-53" value="" style="group" vertex="1" connectable="0" parent="WIyWlLk6GJQsqaUBKTNV-1">
          <mxGeometry x="576.25" y="255" width="117.5" height="90" as="geometry" />
        </mxCell>
        <mxCell id="4S0xpe9cDN7XtUJFlHcr-28" value="COMPANY" style="rounded=0;whiteSpace=wrap;html=1;gradientColor=none;" vertex="1" parent="4S0xpe9cDN7XtUJFlHcr-53">
          <mxGeometry width="117.5" height="35" as="geometry" />
        </mxCell>
        <mxCell id="4S0xpe9cDN7XtUJFlHcr-30" value="" style="endArrow=none;html=1;" edge="1" parent="4S0xpe9cDN7XtUJFlHcr-53">
          <mxGeometry width="50" height="50" relative="1" as="geometry">
            <mxPoint x="37.5" y="70" as="sourcePoint" />
            <mxPoint x="80" y="70" as="targetPoint" />
            <Array as="points">
              <mxPoint x="60" y="90" />
            </Array>
          </mxGeometry>
        </mxCell>
        <mxCell id="4S0xpe9cDN7XtUJFlHcr-56" value="" style="endArrow=none;html=1;" edge="1" parent="WIyWlLk6GJQsqaUBKTNV-1" source="4S0xpe9cDN7XtUJFlHcr-57" target="4S0xpe9cDN7XtUJFlHcr-28">
          <mxGeometry width="50" height="50" relative="1" as="geometry">
            <mxPoint x="590" y="210" as="sourcePoint" />
            <mxPoint x="630" y="340" as="targetPoint" />
          </mxGeometry>
        </mxCell>
        <mxCell id="4S0xpe9cDN7XtUJFlHcr-57" value="&lt;u&gt;Company_name&lt;/u&gt;" style="ellipse;whiteSpace=wrap;html=1;gradientColor=none;" vertex="1" parent="WIyWlLk6GJQsqaUBKTNV-1">
          <mxGeometry x="476.25" y="180" width="100" height="50" as="geometry" />
        </mxCell>
      </root>
    </mxGraphModel>
  </diagram>
</mxfile>
